<mxfile host="app.diagrams.net" modified="2023-01-17T13:33:19.882Z" agent="5.0 (Windows NT 10.0; Win64; x64) AppleWebKit/537.36 (KHTML, like Gecko) Chrome/109.0.0.0 Safari/537.36" version="20.8.5" etag="xxAyAHLhdgvOyhAucA3A" type="github">
  <diagram id="dhwBMO4DtbDK_jQ9Vic2" name="第 1 页">
    <mxGraphModel dx="1434" dy="764" grid="1" gridSize="10" guides="1" tooltips="1" connect="1" arrows="1" fold="1" page="1" pageScale="1" pageWidth="583" pageHeight="827" math="0" shadow="0">
      <root>
        <mxCell id="0" />
        <mxCell id="1" parent="0" />
        <mxCell id="SqQVoM92lUACSFHlT397-3" value="" style="edgeStyle=orthogonalEdgeStyle;rounded=0;orthogonalLoop=1;jettySize=auto;html=1;" edge="1" parent="1" source="SqQVoM92lUACSFHlT397-1" target="SqQVoM92lUACSFHlT397-2">
          <mxGeometry relative="1" as="geometry" />
        </mxCell>
        <mxCell id="SqQVoM92lUACSFHlT397-1" value="添加设备流程" style="rounded=1;whiteSpace=wrap;html=1;" vertex="1" parent="1">
          <mxGeometry x="30" y="30" width="80" height="30" as="geometry" />
        </mxCell>
        <mxCell id="SqQVoM92lUACSFHlT397-5" value="" style="edgeStyle=orthogonalEdgeStyle;rounded=0;orthogonalLoop=1;jettySize=auto;html=1;" edge="1" parent="1" source="SqQVoM92lUACSFHlT397-2" target="SqQVoM92lUACSFHlT397-4">
          <mxGeometry relative="1" as="geometry" />
        </mxCell>
        <mxCell id="SqQVoM92lUACSFHlT397-2" value="进入首页两种&lt;br&gt;方式添加设备" style="whiteSpace=wrap;html=1;rounded=0;" vertex="1" parent="1">
          <mxGeometry x="170" y="15" width="120" height="60" as="geometry" />
        </mxCell>
        <mxCell id="SqQVoM92lUACSFHlT397-8" value="" style="edgeStyle=orthogonalEdgeStyle;rounded=0;orthogonalLoop=1;jettySize=auto;html=1;" edge="1" parent="1" source="SqQVoM92lUACSFHlT397-4" target="SqQVoM92lUACSFHlT397-7">
          <mxGeometry relative="1" as="geometry" />
        </mxCell>
        <mxCell id="SqQVoM92lUACSFHlT397-12" value="点击确定" style="edgeLabel;html=1;align=center;verticalAlign=middle;resizable=0;points=[];" vertex="1" connectable="0" parent="SqQVoM92lUACSFHlT397-8">
          <mxGeometry x="0.181" y="4" relative="1" as="geometry">
            <mxPoint as="offset" />
          </mxGeometry>
        </mxCell>
        <mxCell id="SqQVoM92lUACSFHlT397-4" value="扫码或输入SN" style="whiteSpace=wrap;html=1;rounded=0;" vertex="1" parent="1">
          <mxGeometry x="390" y="15" width="120" height="60" as="geometry" />
        </mxCell>
        <mxCell id="SqQVoM92lUACSFHlT397-11" value="" style="edgeStyle=orthogonalEdgeStyle;rounded=0;orthogonalLoop=1;jettySize=auto;html=1;" edge="1" parent="1" source="SqQVoM92lUACSFHlT397-7" target="SqQVoM92lUACSFHlT397-10">
          <mxGeometry relative="1" as="geometry" />
        </mxCell>
        <mxCell id="SqQVoM92lUACSFHlT397-18" value="验证通过" style="edgeLabel;html=1;align=center;verticalAlign=middle;resizable=0;points=[];" vertex="1" connectable="0" parent="SqQVoM92lUACSFHlT397-11">
          <mxGeometry x="-0.2296" y="2" relative="1" as="geometry">
            <mxPoint as="offset" />
          </mxGeometry>
        </mxCell>
        <mxCell id="SqQVoM92lUACSFHlT397-13" style="edgeStyle=orthogonalEdgeStyle;rounded=0;orthogonalLoop=1;jettySize=auto;html=1;entryX=1;entryY=0.5;entryDx=0;entryDy=0;" edge="1" parent="1" source="SqQVoM92lUACSFHlT397-7" target="SqQVoM92lUACSFHlT397-4">
          <mxGeometry relative="1" as="geometry">
            <Array as="points">
              <mxPoint x="530" y="148" />
              <mxPoint x="530" y="45" />
            </Array>
          </mxGeometry>
        </mxCell>
        <mxCell id="SqQVoM92lUACSFHlT397-14" value="验证失败" style="edgeLabel;html=1;align=center;verticalAlign=middle;resizable=0;points=[];" vertex="1" connectable="0" parent="SqQVoM92lUACSFHlT397-13">
          <mxGeometry x="0.3366" relative="1" as="geometry">
            <mxPoint y="-13" as="offset" />
          </mxGeometry>
        </mxCell>
        <mxCell id="SqQVoM92lUACSFHlT397-7" value="校验sn码&lt;br&gt;是否正确" style="rhombus;whiteSpace=wrap;html=1;rounded=1;" vertex="1" parent="1">
          <mxGeometry x="395" y="120" width="110" height="55" as="geometry" />
        </mxCell>
        <mxCell id="SqQVoM92lUACSFHlT397-20" value="" style="edgeStyle=orthogonalEdgeStyle;rounded=0;orthogonalLoop=1;jettySize=auto;html=1;" edge="1" parent="1" source="SqQVoM92lUACSFHlT397-10" target="SqQVoM92lUACSFHlT397-19">
          <mxGeometry relative="1" as="geometry" />
        </mxCell>
        <mxCell id="SqQVoM92lUACSFHlT397-10" value="跳转配网阶段" style="whiteSpace=wrap;html=1;rounded=0;" vertex="1" parent="1">
          <mxGeometry x="200" y="127.5" width="120" height="40" as="geometry" />
        </mxCell>
        <mxCell id="SqQVoM92lUACSFHlT397-22" value="" style="edgeStyle=orthogonalEdgeStyle;rounded=0;orthogonalLoop=1;jettySize=auto;html=1;" edge="1" parent="1" source="SqQVoM92lUACSFHlT397-19" target="SqQVoM92lUACSFHlT397-21">
          <mxGeometry relative="1" as="geometry" />
        </mxCell>
        <mxCell id="SqQVoM92lUACSFHlT397-19" value="选择配网的方式" style="whiteSpace=wrap;html=1;rounded=0;" vertex="1" parent="1">
          <mxGeometry x="30" y="126.25" width="120" height="42.5" as="geometry" />
        </mxCell>
        <mxCell id="SqQVoM92lUACSFHlT397-24" value="" style="edgeStyle=orthogonalEdgeStyle;rounded=0;orthogonalLoop=1;jettySize=auto;html=1;" edge="1" parent="1" source="SqQVoM92lUACSFHlT397-21" target="SqQVoM92lUACSFHlT397-23">
          <mxGeometry relative="1" as="geometry" />
        </mxCell>
        <mxCell id="SqQVoM92lUACSFHlT397-25" value="开始搜索设备" style="edgeLabel;html=1;align=center;verticalAlign=middle;resizable=0;points=[];" vertex="1" connectable="0" parent="SqQVoM92lUACSFHlT397-24">
          <mxGeometry x="0.2762" relative="1" as="geometry">
            <mxPoint x="-12" as="offset" />
          </mxGeometry>
        </mxCell>
        <mxCell id="SqQVoM92lUACSFHlT397-21" value="选择要配网&lt;br&gt;的设备(蓝牙配网需要打开蓝牙，WiFi配网需要打开wif)" style="whiteSpace=wrap;html=1;rounded=0;" vertex="1" parent="1">
          <mxGeometry x="25" y="210" width="130" height="70" as="geometry" />
        </mxCell>
        <mxCell id="SqQVoM92lUACSFHlT397-27" value="" style="edgeStyle=orthogonalEdgeStyle;rounded=0;orthogonalLoop=1;jettySize=auto;html=1;" edge="1" parent="1" source="SqQVoM92lUACSFHlT397-23" target="SqQVoM92lUACSFHlT397-26">
          <mxGeometry relative="1" as="geometry" />
        </mxCell>
        <mxCell id="SqQVoM92lUACSFHlT397-23" value="搜索到设备之后&lt;br&gt;点击你想要的&lt;br&gt;连接的设备" style="whiteSpace=wrap;html=1;rounded=0;" vertex="1" parent="1">
          <mxGeometry x="270" y="215" width="120" height="60" as="geometry" />
        </mxCell>
        <mxCell id="SqQVoM92lUACSFHlT397-29" value="" style="edgeStyle=orthogonalEdgeStyle;rounded=0;orthogonalLoop=1;jettySize=auto;html=1;" edge="1" parent="1" source="SqQVoM92lUACSFHlT397-26" target="SqQVoM92lUACSFHlT397-28">
          <mxGeometry relative="1" as="geometry" />
        </mxCell>
        <mxCell id="SqQVoM92lUACSFHlT397-26" value="等待连接蓝牙或者&lt;br&gt;wifi连接成功" style="whiteSpace=wrap;html=1;rounded=0;" vertex="1" parent="1">
          <mxGeometry x="440" y="215" width="120" height="60" as="geometry" />
        </mxCell>
        <mxCell id="SqQVoM92lUACSFHlT397-31" value="" style="edgeStyle=orthogonalEdgeStyle;rounded=0;orthogonalLoop=1;jettySize=auto;html=1;" edge="1" parent="1" source="SqQVoM92lUACSFHlT397-28" target="SqQVoM92lUACSFHlT397-30">
          <mxGeometry relative="1" as="geometry" />
        </mxCell>
        <mxCell id="SqQVoM92lUACSFHlT397-28" value="开始给设备配网" style="whiteSpace=wrap;html=1;rounded=0;" vertex="1" parent="1">
          <mxGeometry x="440" y="352.5" width="120" height="35" as="geometry" />
        </mxCell>
        <mxCell id="SqQVoM92lUACSFHlT397-34" value="" style="edgeStyle=orthogonalEdgeStyle;rounded=0;orthogonalLoop=1;jettySize=auto;html=1;entryX=1;entryY=0.5;entryDx=0;entryDy=0;" edge="1" parent="1" source="SqQVoM92lUACSFHlT397-30" target="SqQVoM92lUACSFHlT397-37">
          <mxGeometry relative="1" as="geometry">
            <mxPoint x="145" y="370" as="targetPoint" />
          </mxGeometry>
        </mxCell>
        <mxCell id="SqQVoM92lUACSFHlT397-35" value="点击确定" style="edgeLabel;html=1;align=center;verticalAlign=middle;resizable=0;points=[];" vertex="1" connectable="0" parent="SqQVoM92lUACSFHlT397-34">
          <mxGeometry x="-0.3" y="-2" relative="1" as="geometry">
            <mxPoint x="-7" y="2" as="offset" />
          </mxGeometry>
        </mxCell>
        <mxCell id="SqQVoM92lUACSFHlT397-30" value="输入wifi名称&lt;br&gt;wifi密码" style="whiteSpace=wrap;html=1;rounded=1;" vertex="1" parent="1">
          <mxGeometry x="240" y="340" width="120" height="60" as="geometry" />
        </mxCell>
        <mxCell id="SqQVoM92lUACSFHlT397-38" style="edgeStyle=orthogonalEdgeStyle;rounded=0;orthogonalLoop=1;jettySize=auto;html=1;entryX=0.5;entryY=0;entryDx=0;entryDy=0;" edge="1" parent="1" source="SqQVoM92lUACSFHlT397-37" target="SqQVoM92lUACSFHlT397-30">
          <mxGeometry relative="1" as="geometry">
            <Array as="points">
              <mxPoint x="80" y="310" />
              <mxPoint x="300" y="310" />
            </Array>
          </mxGeometry>
        </mxCell>
        <mxCell id="SqQVoM92lUACSFHlT397-39" value="连接失败" style="edgeLabel;html=1;align=center;verticalAlign=middle;resizable=0;points=[];" vertex="1" connectable="0" parent="SqQVoM92lUACSFHlT397-38">
          <mxGeometry x="0.0444" y="-1" relative="1" as="geometry">
            <mxPoint as="offset" />
          </mxGeometry>
        </mxCell>
        <mxCell id="SqQVoM92lUACSFHlT397-41" value="" style="edgeStyle=orthogonalEdgeStyle;rounded=0;orthogonalLoop=1;jettySize=auto;html=1;" edge="1" parent="1" source="SqQVoM92lUACSFHlT397-37" target="SqQVoM92lUACSFHlT397-40">
          <mxGeometry relative="1" as="geometry" />
        </mxCell>
        <mxCell id="SqQVoM92lUACSFHlT397-42" value="连接成功" style="edgeLabel;html=1;align=center;verticalAlign=middle;resizable=0;points=[];" vertex="1" connectable="0" parent="SqQVoM92lUACSFHlT397-41">
          <mxGeometry x="-0.2667" y="2" relative="1" as="geometry">
            <mxPoint as="offset" />
          </mxGeometry>
        </mxCell>
        <mxCell id="SqQVoM92lUACSFHlT397-37" value="检查wifi&lt;br&gt;是否连接成功" style="rhombus;whiteSpace=wrap;html=1;rounded=0;" vertex="1" parent="1">
          <mxGeometry x="30" y="330" width="100" height="80" as="geometry" />
        </mxCell>
        <mxCell id="SqQVoM92lUACSFHlT397-40" value="配网结束" style="whiteSpace=wrap;html=1;rounded=1;" vertex="1" parent="1">
          <mxGeometry x="30" y="500" width="100" height="40" as="geometry" />
        </mxCell>
      </root>
    </mxGraphModel>
  </diagram>
</mxfile>
